<svg id="_x33_0" enable-background="new 0 0 64 64" height="512" viewBox="0 0 64 64" width="512" xmlns="http://www.w3.org/2000/svg" xmlns:xlink="http://www.w3.org/1999/xlink"><linearGradient id="SVGID_1_" gradientUnits="userSpaceOnUse" x1="31.924" x2="31.924" y1="63" y2=".447"><stop offset="0" stop-color="#9f2fff"/><stop offset="1" stop-color="#0bb1d3"/></linearGradient><path d="m7.309 51.127c-3.326 2.079-5.551 5.498-6.105 9.38l-.357 2.493h62.153v-2h-9.226c-1.515-5.537-5.783-9.947-11.318-11.607l-4.744-1.423c-3.479-1.044-6.376-3.314-8.242-6.405.568-.925.936-1.992 1.042-3.148l.366-4.023c.036-.396.302-.732.679-.858l2.638-.879-.891-3.565c-.202-.806-.304-1.641-.304-2.482 0-2.886-.715-5.722-2.063-8.265 2.395-1.113 4.063-3.535 4.063-6.345 0-3.86-3.14-7-7-7h-8c-1.627 0-3.061.793-3.974 2h-1.026c-7.72 0-14 6.28-14 14v11.37c0 6.674 2.744 13.052 7.549 17.648-.345.426-.755.806-1.24 1.109zm3.363-.673 1.055.527c1.116.558 2.128 1.288 3.01 2.169 2.482 2.483 5.782 3.85 9.293 3.85 1.342 0 2.667-.211 3.946-.614 1.114 1.373 1.999 2.926 2.631 4.614h-15.773c-.785-3.58-3.194-6.597-6.465-8.177.973-.608 1.744-1.429 2.303-2.369zm11.328-5.564c.417.069.847.11 1.297.11.197 0 .39-.012.583-.027 2.179 3.915 5.822 6.882 10.128 8.174l6.879 2.063c2.838.852 4.994 3.019 5.849 5.79h-4.056c-.816-1.86-2.309-3.358-4.192-4.165l-4.093-1.754-.788 1.838 4.093 1.754c1.132.485 2.072 1.304 2.72 2.327h-7.703c-1.466-4.442-4.481-8.125-8.594-10.41l-2.123-1.178zm-18.817 15.901c.361-2.526 1.56-4.815 3.368-6.544 3.057 1.102 5.378 3.636 6.211 6.754h-9.609zm33.955-10.905 4.744 1.423c4.696 1.409 8.355 5.065 9.81 9.691h-2.905c-.915-3.683-3.641-6.6-7.326-7.706l-6.879-2.063c-3.618-1.085-6.71-3.506-8.663-6.715.815-.313 1.557-.769 2.199-1.339 2.127 3.223 5.281 5.587 9.02 6.709zm-6.138-23.276c0 1.004.122 2.002.363 2.966l.442 1.768-.88.293c-1.131.376-1.931 1.387-2.039 2.575l-.254 2.788h-1.396c-.998 0-1.895-.555-2.341-1.447l-1.789.895c.788 1.575 2.37 2.553 4.13 2.553h1.142c-.561 2.324-2.622 4-5.146 4-.69 0-1.36-.128-1.991-.381l-3.87-1.548-.743 1.857 3.372 1.348v6.311l3.15 1.75c1.201.667 2.286 1.482 3.266 2.395-.783.173-1.58.267-2.386.267-2.977 0-5.775-1.159-7.879-3.264-1.033-1.033-2.221-1.889-3.529-2.544l-1.186-.593c.193-.773.272-1.582.189-2.409l-.183-1.827c-.262-2.616.499-5.188 2.142-7.242l2.094-2.617-3.403-1.134c-1.96-.652-3.275-2.477-3.275-4.541 0-1.009.82-1.829 1.829-1.829.488 0 .947.19 1.293.536l2.664 2.664.669-6.697c.256-2.567 2.396-4.503 4.975-4.503h7.57c.331 0 .654-.031.972-.076 1.323 2.344 2.028 4.99 2.028 7.686zm-28 5.76v-11.37c0-6.617 5.383-12 12-12h.101c-.066.323-.101.658-.101 1 0 2.757 2.243 5 5 5h1v-2h-1c-1.654 0-3-1.346-3-3s1.346-3 3-3h8c2.757 0 5 2.243 5 5s-2.243 5-5 5h-7.57c-3.611 0-6.605 2.71-6.965 6.303l-.252 2.528c-.676-.539-1.508-.831-2.384-.831-2.112 0-3.829 1.717-3.829 3.829 0 2.926 1.865 5.514 4.642 6.439l.682.227-.302.377c-1.972 2.464-2.884 5.55-2.57 8.69l.183 1.827c.06.602.001 1.191-.143 1.752-4.14-4.181-6.492-9.85-6.492-15.771zm24-5.37h2c0 1.654-1.346 3-3 3s-3-1.346-3-3h2c0 .551.449 1 1 1s1-.449 1-1zm26 20c0 2.206 1.794 4 4 4s4-1.794 4-4c0-4.411-3.589-8-8-8h-16v-2h16c5.514 0 10 4.486 10 10 0 3.309-2.691 6-6 6s-6-2.691-6-6c0-2.206 1.794-4 4-4s4 1.794 4 4h-2c0-1.103-.897-2-2-2s-2 .897-2 2zm0-15c0-.551-.449-1-1-1h-1v-2h1c1.654 0 3 1.346 3 3s-1.346 3-3 3h-13v-2h13c.551 0 1-.449 1-1zm-18 9h2v2h-2zm4 2v-2h2v2zm4 0v-2h2v2zm-5.241-20.349 4.914-5.733 3.937-.74c4.282-.778 7.39-4.502 7.39-8.855v-6.876l-7.725 3.511c-3.204 1.457-5.275 4.673-5.275 8.23l.129 3.457-4.888 5.703zm9.344-16.873 4.897-2.225v3.771c0 3.385-2.417 6.282-5.753 6.888l-3.147.591-.1-2.652c0-2.738 1.611-5.239 4.103-6.373zm5.897 14.808-2.707 2.707 1.414 1.414 2.757-2.757 3.28-.41c2.996-.374 5.256-2.934 5.256-5.954v-3.867l-5.456 1.364c-2.675.669-4.544 3.063-4.544 5.821zm2-1.682c0-1.838 1.246-3.434 3.03-3.88l2.97-.743v1.305c0 2.013-1.506 3.72-3.504 3.969l-2.496.312zm8 12.096c0-1.654-1.346-3-3-3h-3v3c0 1.654 1.346 3 3 3h3zm-2 1h-1c-.551 0-1-.449-1-1v-1h1c.551 0 1 .449 1 1z" fill="url(#SVGID_1_)"/></svg>